<?xml version="1.0" standalone="no"?>
<!DOCTYPE svg PUBLIC "-//W3C//DTD SVG 20010904//EN"
 "http://www.w3.org/TR/2001/REC-SVG-20010904/DTD/svg10.dtd">
<svg version="1.0" xmlns="http://www.w3.org/2000/svg"
 width="640.000000pt" height="640.000000pt" viewBox="0 0 640.000000 640.000000"
 preserveAspectRatio="xMidYMid meet">
<metadata>
Created by potrace 1.14, written by Peter Selinger 2001-2017
</metadata>
<g transform="translate(0.000000,640.000000) scale(0.100000,-0.100000)"
fill="#000000" stroke="none">
<path d="M4828 5791 l-366 -367 56 -60 c108 -115 153 -168 244 -289 37 -49 71
-94 76 -100 55 -71 202 -334 260 -465 82 -184 169 -460 189 -595 2 -16 7 -37
10 -45 6 -15 13 -53 14 -80 0 -8 4 -37 9 -65 5 -27 12 -84 16 -125 3 -41 8
-95 10 -120 5 -52 5 -426 0 -485 -10 -122 -21 -223 -30 -270 -2 -11 -7 -40
-11 -65 -9 -52 -8 -51 -30 -153 -9 -43 -29 -121 -46 -175 -16 -53 -32 -106
-34 -117 -3 -11 -9 -29 -14 -40 -5 -11 -23 -58 -41 -105 -39 -102 -149 -330
-193 -397 -17 -26 -31 -50 -32 -53 -3 -16 -147 -221 -182 -260 -13 -14 -23
-28 -23 -31 0 -3 -10 -17 -22 -31 -13 -13 -45 -51 -73 -83 -27 -32 -67 -75
-87 -96 -21 -21 -38 -42 -38 -46 0 -4 122 -127 271 -273 149 -146 314 -307
366 -358 52 -50 98 -92 103 -92 14 0 143 140 277 301 147 179 326 451 442 674
139 267 274 629 336 905 17 74 54 264 59 300 3 25 8 56 11 69 8 40 18 129 32
286 16 179 9 661 -13 843 -2 17 -6 47 -8 65 -8 74 -17 143 -21 157 -2 8 -7 35
-10 60 -3 25 -10 61 -15 81 -6 19 -11 48 -14 65 -2 16 -6 36 -9 44 -4 8 -8 26
-9 40 -2 14 -7 31 -11 38 -5 6 -6 12 -3 12 3 0 -1 18 -9 40 -8 22 -12 40 -9
40 2 0 -2 16 -10 35 -8 19 -13 35 -10 35 2 0 -2 14 -11 30 -9 17 -13 30 -10
30 6 0 -77 238 -111 315 -7 17 -27 64 -45 105 -17 41 -52 116 -77 165 -25 50
-46 92 -47 95 -1 3 -11 21 -23 40 -12 19 -28 47 -35 63 -6 15 -16 27 -20 27
-5 0 -6 4 -3 9 3 5 -1 14 -9 21 -8 7 -15 19 -15 26 0 8 -4 14 -10 14 -5 0 -10
4 -10 10 0 29 -247 369 -382 525 -93 107 -224 246 -230 244 -2 -1 -168 -166
-370 -368z"/>
<path d="M3888 5117 c-137 -132 -393 -378 -544 -522 l-94 -90 50 -53 c122
-129 234 -289 303 -432 22 -47 42 -89 44 -95 1 -5 16 -48 32 -95 33 -96 67
-249 77 -337 8 -77 8 -351 0 -433 -11 -113 -28 -197 -60 -305 -10 -33 -19 -64
-21 -70 -6 -27 -74 -182 -101 -232 -28 -52 -131 -211 -149 -229 -5 -7 -24 -29
-42 -50 -17 -22 -50 -59 -72 -84 -40 -45 -49 -65 -32 -72 8 -3 165 -148 296
-273 23 -22 99 -94 170 -160 70 -66 144 -136 165 -155 20 -19 58 -54 82 -77
l45 -42 55 57 c135 140 319 384 398 527 63 113 118 223 124 248 3 15 11 27 16
27 6 0 10 5 10 11 0 6 18 62 41 123 23 61 43 118 45 126 2 8 10 40 19 70 28
100 65 269 70 325 2 17 5 39 8 51 13 52 21 216 20 404 0 209 -7 311 -27 430
-3 14 -7 41 -10 60 -3 19 -9 49 -14 65 -4 17 -8 37 -7 45 1 8 -2 22 -6 31 -5
9 -11 31 -14 50 -11 61 -103 334 -136 403 -10 22 -19 45 -19 52 0 7 -3 14 -8
16 -4 2 -27 44 -51 93 -25 50 -47 92 -50 95 -7 6 -28 43 -48 81 -7 15 -20 32
-28 39 -8 7 -15 17 -15 22 0 8 -36 64 -50 78 -3 3 -25 32 -49 65 -25 33 -47
62 -50 65 -4 3 -26 30 -51 60 -24 30 -78 90 -119 132 l-76 77 -127 -122z"/>
<path d="M414 4649 c-52 -9 -155 -51 -196 -80 -86 -60 -152 -148 -189 -249
-23 -63 -24 -74 -24 -365 l0 -300 1035 -1 1035 -1 58 -23 c101 -39 165 -100
219 -210 28 -58 31 -214 5 -273 -9 -20 -16 -40 -16 -42 -1 -7 -16 -26 -70 -86
-28 -32 -68 -61 -110 -82 l-66 -32 -795 -2 c-437 -2 -909 -3 -1048 -3 l-252 0
0 -914 c0 -1003 -2 -957 61 -1076 152 -285 533 -351 777 -133 48 43 122 149
122 175 0 9 4 19 9 22 5 3 12 23 16 43 5 21 10 45 12 53 3 8 5 197 6 420 l2
405 50 2 c28 2 295 4 595 6 300 2 556 7 570 10 25 7 52 12 100 21 30 6 139 39
195 60 80 29 285 146 293 167 2 5 8 9 13 9 29 0 261 235 327 332 28 42 52 81
52 86 0 6 4 12 8 14 14 5 79 151 106 234 37 114 51 186 62 299 6 58 9 208 4
225 0 3 -3 34 -5 70 -3 36 -7 76 -10 90 -3 14 -8 36 -11 50 -19 94 -94 313
-113 330 -3 3 -17 25 -30 50 -25 47 -108 164 -151 214 -52 60 -167 169 -220
209 -30 23 -57 44 -60 47 -66 67 -355 186 -520 216 -19 3 -46 8 -60 11 -41 8
-1741 10 -1786 2z"/>
</g>
</svg>
